<?xml version="1.0" standalone="no"?>
<!DOCTYPE svg PUBLIC "-//W3C//DTD SVG 20010904//EN"
 "http://www.w3.org/TR/2001/REC-SVG-20010904/DTD/svg10.dtd">
<svg version="1.0" xmlns="http://www.w3.org/2000/svg"
 width="225.000000pt" height="225.000000pt" viewBox="0 0 225.000000 225.000000"
 preserveAspectRatio="xMidYMid meet">

<g transform="translate(0.000000,225.000000) scale(0.100000,-0.100000)"
fill="#000000" stroke="none">
<path d="M730 1330 l0 -50 90 0 90 0 0 -215 0 -215 50 0 50 0 0 215 0 215 90
0 90 0 0 50 0 50 -230 0 -230 0 0 -50z"/>
<path d="M1300 1330 l0 -50 128 0 c112 0 131 -2 145 -18 21 -23 22 -71 3 -98
-13 -17 -30 -19 -200 -22 l-186 -3 0 -145 0 -144 50 0 50 0 0 100 0 100 69 0
69 0 78 -100 79 -100 62 0 c35 0 63 3 63 6 0 5 -86 115 -138 176 -13 15 -11
18 20 31 91 38 122 162 64 250 -37 56 -74 67 -223 67 l-133 0 0 -50z"/>
<path d="M1958 1366 c-78 -21 -151 -90 -177 -165 -17 -52 -13 -150 8 -196 10
-22 38 -59 64 -82 62 -58 120 -73 274 -73 l123 0 0 49 0 49 -139 4 c-123 3
-143 5 -168 24 -99 74 -99 204 0 278 24 18 46 22 138 24 l110 4 -3 46 -3 47
-90 2 c-49 1 -111 -4 -137 -11z"/>
<path d="M57 1217 l-49 -62 52 -3 c49 -3 55 -1 80 30 l28 33 -22 29 c-13 17
-27 31 -32 32 -5 2 -31 -25 -57 -59z"/>
<path d="M245 963 c-60 -80 -112 -150 -113 -155 -2 -5 37 -7 89 -6 l93 3 99
125 c54 69 107 137 118 153 l20 27 -98 -1 -98 0 -110 -146z"/>
</g>
</svg>
